<?xml version="1.0" encoding="UTF-8"?>
<svg xmlns="http://www.w3.org/2000/svg" version="1.1" viewBox="0 0 595.28 595.28">
  <defs>
    <style>
      .cls-1 {
        fill: none;
        stroke: #fff;
        stroke-miterlimit: 10;
        stroke-width: 18px;
      }
    </style>
  </defs>
  <!-- Generator: Adobe Illustrator 28.7.2, SVG Export Plug-In . SVG Version: 1.2.0 Build 154)  -->
  <g>
    <g id="Calque_1">
      <path class="cls-1" d="M392.97,439.54c-51.26,62.24-135.9,92.81-210.7,76.87-46.37-9.91-112-42.56-119.6-91.14-.74-4.62-4.39-27.96,8.54-47.44,13.86-20.89,32.54-15.8,49.35-35.56,16.07-18.88,23.54-52.3,11.38-74.03-12.12-21.73-35.26-16.34-55.98-46.51-4.22-6.13-11.32-16.47-13.29-30.37-6.03-42.22,40.61-78.41,48.42-84.48,40.71-31.64,87.35-32.28,106.27-32.28,75.87,0,153.25,42.35,194.6,111.06,10.01,16.64,16.81,33.01,21.43,47.88l-107.64,96.73,36.86,35.86,80.06-85.15c.33,3.75.5,6.93.6,9.51.5,13.53,1.74,85.78-50.29,149.03Z"/>
      <path class="cls-1" d="M301.85,351.76c-13.7-4.9-32.68,2.42-40.81,15.19-5.44,8.54-1.28,12.06-3.8,31.32-1.29,9.85-5.67,43.38-28.47,59.79-6.04,4.35-9.73,4.87-9.49,6.64.84,6.15,47.6,16.14,84.47-6.64,21.21-13.11,35.35-34.73,37.96-53.15.58-4.09,1.4-10.41-1.36-17.29-2.73-6.8-6.99-9.23-20.47-20.67-15.81-13.43-14.46-13.91-18.03-15.19Z"/>
      <path class="cls-1" d="M574.25,141.05l-131.58,139.95-80.06,85.15-36.86-35.86,107.64-96.73,120.9-108.65c6.13-5.96,15.5-5.29,19.96,0,3.48,4.19,3.65,10.92,0,16.14Z"/>
      <polygon class="cls-1" points="362.61 366.15 340.34 387.61 337.09 382.12 335.82 379.98 321.79 366.95 307.76 354.83 304.25 352.99 301.84 351.75 325.74 330.29 362.61 366.15"/>
      <circle class="cls-1" cx="156.35" cy="169.43" r="38.6"/>
      <circle class="cls-1" cx="261.4" cy="159.5" r="35.44"/>
      <circle class="cls-1" cx="349.13" cy="206.42" r="30.3"/>
      <circle class="cls-1" cx="165.94" cy="406.89" r="34.8"/>
    </g>
  </g>
</svg>